<svg id="Capa_1" data-name="Capa 1" xmlns="http://www.w3.org/2000/svg" viewBox="0 0 410.22 414.6"><defs><style>.cls-1{fill:#94535b;}.cls-2,.cls-4,.cls-5{fill:none;stroke-miterlimit:10;}.cls-2,.cls-5{stroke:#94535b;}.cls-2{stroke-width:10px;}.cls-3{fill:#b96772;}.cls-4{stroke:#b96772;}.cls-4,.cls-5{stroke-width:20px;}</style></defs><title>pokebola</title><circle class="cls-1" cx="205.21" cy="205" r="200"/><circle class="cls-2" cx="205.21" cy="205" r="200"/><path class="cls-3" d="M450,254.6c0,110.45-89.54,200-200,200S50,365.05,50,254.6" transform="translate(-44.79 -45)"/><path class="cls-2" d="M450,254.6c0,110.45-89.54,200-200,200S50,365.05,50,254.6" transform="translate(-44.79 -45)"/><line class="cls-4" x1="247.73" y1="224" x2="109.19" y2="224"/><line class="cls-4" x1="247.73" y1="224" x2="109.19" y2="224"/><line class="cls-2" x1="405.08" y1="214.5" x2="3.94" y2="214.5"/><path class="cls-3" d="M310.7,250a61.4,61.4,0,1,1-122.8,0" transform="translate(-44.79 -45)"/><path class="cls-5" d="M310.7,250a61.4,61.4,0,1,1-122.8,0" transform="translate(-44.79 -45)"/><circle class="cls-1" cx="204.51" cy="205" r="53.78"/><circle class="cls-4" cx="204.51" cy="205" r="53.78"/><rect class="cls-3" y="190.51" width="152.92" height="20"/><rect class="cls-3" x="257.29" y="190.51" width="152.92" height="20"/></svg>